<svg fill="#40D6E6" height="456pt" viewBox="-27 0 455 456" width="456pt" xmlns="http://www.w3.org/2000/svg"><path d="m8.371094 392h18.128906v25.832031c0 20.953125 17.542969 38.167969 38.5 38.167969h297.628906c20.984375-.113281 37.921875-17.183594 37.871094-38.167969v-379.664062c.050781-20.984375-16.886719-38.054688-37.871094-38.167969h-297.628906c-20.957031 0-38.5 17.214844-38.5 38.167969v25.832031h-18.128906c-4.417969 0-7.871094 3.09375-7.871094 7.511719v56.980469c0 4.417968 3.453125 7.507812 7.871094 7.507812h18.128906v184h-18.128906c-4.417969 0-7.871094 3.089844-7.871094 7.507812v56.980469c0 4.417969 3.453125 7.511719 7.871094 7.511719zm8.128906-312h37v40h-37zm26 56h18.75c4.417969 0 8.25-3.089844 8.25-7.507812v-56.980469c0-4.417969-3.832031-7.511719-8.25-7.511719h-18.75v-25.832031c0-12.132813 10.363281-22.167969 22.5-22.167969h297.628906c12.152344.101562 21.929688 10.015625 21.871094 22.167969v379.664062c.058594 12.152344-9.71875 22.066407-21.871094 22.167969h-297.628906c-12.136719 0-22.5-10.035156-22.5-22.167969v-25.832031h18.75c4.417969 0 8.25-3.09375 8.25-7.511719v-56.980469c0-4.417968-3.832031-7.507812-8.25-7.507812h-18.75zm-26 200h37v40h-37zm0 0"/><path d="m333.5 78c0-4.417969-3.582031-8-8-8h-223c-4.417969 0-8 3.582031-8 8v301c0 4.417969 3.582031 8 8 8h223c4.417969 0 8-3.582031 8-8zm-223 8h207v284h-207zm0 0"/><path d="m219.175781 130.433594c-3.003906-2.609375-7.472656-2.609375-10.480469-.003906l-92.53125 80.128906c-2.53125 2.269531-3.425781 5.847656-2.257812 9.039062 1.148438 3.175782 4.125 5.320313 7.5 5.398438h13.09375v93.214844c-.058594 4.417968 3.417969 8.074218 7.835938 8.238281l141.253906 1.550781h.074218c2.113282-.089844 4.105469-1.007812 5.550782-2.554688 1.496094-1.605468 2.316406-3.726562 2.285156-5.921874v-94.523438h14.722656c3.367188-.089844 6.335938-2.226562 7.492188-5.386719 1.15625-3.160156.265625-6.707031-2.246094-8.949219zm-5.25 17.023437 70.882813 61.542969h-141.949219zm15.574219 163.5625-31-.28125v-35.738281h31zm46 .429688-30-.28125v-43.898438c.019531-4.472656-3.53125-8.140625-8-8.269531h-46.621094c-4.542968.097656-8.222656 3.726562-8.378906 8.273438v43.316406l-32-.300782v-85.289062h125zm0 0"/></svg>